<?xml version="1.0" encoding="UTF-8"?>
<!DOCTYPE svg PUBLIC "-//W3C//DTD SVG 1.1//EN" "http://www.w3.org/Graphics/SVG/1.1/DTD/svg11.dtd">
<svg version="1.1" xmlns="http://www.w3.org/2000/svg" xmlns:xlink="http://www.w3.org/1999/xlink" x="0" y="0" width="2000" height="1000" viewBox="0, 0, 2000, 1000">
  <g id="Layer_1">
    <path d="M0,0 L2000,0 L2000,1000 L0,1000 L0,0 z" fill="#FF6F6F"/>
    <path d="M835.525,561.398 C835.525,568.418 840.565,574.394 849.133,574.394 C852.733,574.394 855.217,573.386 857.341,571.802 L856.657,570.434 C854.749,571.874 852.301,572.846 849.133,572.846 C841.681,572.846 837.289,567.626 837.289,561.398 C837.289,555.206 841.681,549.95 849.133,549.95 C852.301,549.95 854.749,550.958 856.657,552.398 L857.341,551.03 C855.217,549.482 852.733,548.402 849.133,548.402 C840.565,548.402 835.525,554.378 835.525,561.398 z" fill="#EC5959" opacity="0.94"/>
    <path d="M869.077,549.95 C872.245,549.95 874.585,551.606 875.197,554.09 L876.781,553.586 C875.989,550.526 873.073,548.402 869.077,548.402 C864.937,548.402 861.265,550.85 861.265,554.99 C861.229,557.042 862.129,559.562 866.701,561.038 L871.093,562.478 C873.325,563.198 875.773,564.818 875.773,567.626 C875.773,570.434 873.289,572.846 869.041,572.846 C865.153,572.846 862.669,570.686 861.877,568.634 L860.185,569.102 C861.265,571.802 864.361,574.394 869.077,574.394 C874.297,574.394 877.537,571.334 877.537,567.554 C877.537,564.278 874.729,561.902 871.633,560.894 L867.241,559.454 C863.641,558.266 863.029,556.43 863.029,554.918 C863.029,551.786 865.801,549.95 869.077,549.95 z" fill="#EC5959" opacity="0.94"/>
    <path d="M889.633,549.95 C892.801,549.95 895.141,551.606 895.753,554.09 L897.337,553.586 C896.545,550.526 893.629,548.402 889.633,548.402 C885.493,548.402 881.821,550.85 881.821,554.99 C881.785,557.042 882.685,559.562 887.257,561.038 L891.649,562.478 C893.881,563.198 896.329,564.818 896.329,567.626 C896.329,570.434 893.845,572.846 889.597,572.846 C885.709,572.846 883.225,570.686 882.433,568.634 L880.741,569.102 C881.821,571.802 884.917,574.394 889.633,574.394 C894.853,574.394 898.093,571.334 898.093,567.554 C898.093,564.278 895.285,561.902 892.189,560.894 L887.797,559.454 C884.197,558.266 883.585,556.43 883.585,554.918 C883.585,551.786 886.357,549.95 889.633,549.95 z" fill="#EC5959" opacity="0.94"/>
    <path d="M837.479,329.76 L835.787,329.76 L835.787,343.512 C835.787,350.1 832.763,353.808 827.399,353.808 C822.107,353.808 819.803,350.208 819.803,346.356 C819.803,345.852 819.983,344.628 820.379,343.8 L818.651,343.8 C818.255,344.628 818.111,345.924 818.111,346.428 C818.111,351.072 820.847,355.356 827.399,355.356 C833.771,355.356 837.479,351.18 837.479,343.512 z" fill="#EC5959" opacity="0.94"/>
    <path d="M851.267,330.912 C854.435,330.912 856.775,332.568 857.387,335.052 L858.971,334.548 C858.179,331.488 855.263,329.364 851.267,329.364 C847.127,329.364 843.455,331.812 843.455,335.952 C843.419,338.004 844.319,340.524 848.891,342 L853.283,343.44 C855.515,344.16 857.963,345.78 857.963,348.588 C857.963,351.396 855.479,353.808 851.231,353.808 C847.343,353.808 844.859,351.648 844.067,349.596 L842.375,350.064 C843.455,352.764 846.551,355.356 851.267,355.356 C856.487,355.356 859.727,352.296 859.727,348.516 C859.727,345.24 856.919,342.864 853.823,341.856 L849.431,340.416 C845.831,339.228 845.219,337.392 845.219,335.88 C845.219,332.748 847.991,330.912 851.267,330.912 z" fill="#EC5959" opacity="0.94"/>
    <path d="M817.373,779.502 L817.373,769.242 L825.221,769.242 C829.721,769.242 832.385,765.894 832.385,761.862 C832.385,757.83 829.757,754.302 825.221,754.302 L815.681,754.302 L815.681,779.502 z M817.373,767.802 L817.373,755.778 L825.005,755.778 C828.533,755.778 830.621,758.514 830.621,761.862 C830.621,765.174 828.497,767.802 825.005,767.802 z" fill="#EC5959" opacity="0.94"/>
    <path d="M844.229,755.454 C847.397,755.454 849.737,757.11 850.349,759.594 L851.933,759.09 C851.141,756.03 848.225,753.906 844.229,753.906 C840.089,753.906 836.417,756.354 836.417,760.494 C836.381,762.546 837.281,765.066 841.853,766.542 L846.245,767.982 C848.477,768.702 850.925,770.322 850.925,773.13 C850.925,775.938 848.441,778.35 844.193,778.35 C840.305,778.35 837.821,776.19 837.029,774.138 L835.337,774.606 C836.417,777.306 839.513,779.898 844.229,779.898 C849.449,779.898 852.689,776.838 852.689,773.058 C852.689,769.782 849.881,767.406 846.785,766.398 L842.393,764.958 C838.793,763.77 838.181,761.934 838.181,760.422 C838.181,757.29 840.953,755.454 844.229,755.454 z" fill="#EC5959" opacity="0.94"/>
    <path d="M860.033,778.026 L860.033,755.778 L865.325,755.778 C872.957,755.778 876.701,760.782 876.701,766.902 C876.701,773.022 872.957,778.026 865.325,778.026 z M865.325,779.502 C874.145,779.502 878.465,773.85 878.465,766.902 C878.465,759.954 874.145,754.302 865.325,754.302 L858.341,754.302 L858.341,779.502 z" fill="#EC5959" opacity="0.94"/>
    <path d="M509.415,450.699 L509.415,461.931 L511.107,461.931 L511.107,436.731 L509.415,436.731 L509.415,449.223 L494.871,449.223 L494.871,436.731 L493.179,436.731 L493.179,461.931 L494.871,461.931 L494.871,450.699 z" fill="#EC5959" opacity="0.94"/>
    <path d="M515.571,436.731 L515.571,438.207 L524.931,438.207 L524.931,461.931 L526.623,461.931 L526.623,438.207 L535.947,438.207 L535.947,436.731 z" fill="#EC5959" opacity="0.94"/>
    <path d="M552.903,461.607 L554.487,461.607 L564.639,439.107 L566.727,461.931 L568.455,461.931 L566.151,436.731 L563.955,436.731 L553.731,459.519 L543.471,436.731 L541.311,436.731 L538.971,461.931 L540.699,461.931 L542.787,439.107 z" fill="#EC5959" opacity="0.94"/>
    <path d="M589.083,460.491 L576.915,460.491 L576.915,436.731 L575.223,436.731 L575.223,461.931 L589.083,461.931 z" fill="#EC5959" opacity="0.94"/>
    <path d="M1583.084,97.454 C1586.252,97.454 1588.592,99.11 1589.204,101.594 L1590.788,101.09 C1589.996,98.03 1587.08,95.906 1583.084,95.906 C1578.944,95.906 1575.272,98.354 1575.272,102.494 C1575.236,104.546 1576.136,107.066 1580.708,108.542 L1585.1,109.982 C1587.332,110.702 1589.78,112.322 1589.78,115.13 C1589.78,117.938 1587.296,120.35 1583.048,120.35 C1579.16,120.35 1576.676,118.19 1575.884,116.138 L1574.192,116.606 C1575.272,119.306 1578.368,121.898 1583.084,121.898 C1588.304,121.898 1591.544,118.838 1591.544,115.058 C1591.544,111.782 1588.736,109.406 1585.64,108.398 L1581.248,106.958 C1577.648,105.77 1577.036,103.934 1577.036,102.422 C1577.036,99.29 1579.808,97.454 1583.084,97.454 z" fill="#EC5959" opacity="0.94"/>
    <path d="M1604.648,121.502 L1613.864,96.302 L1612.064,96.302 L1603.748,119.234 L1595.432,96.302 L1593.632,96.302 L1602.848,121.502 z" fill="#EC5959" opacity="0.94"/>
    <path d="M1628.912,97.454 C1631.72,97.454 1634.312,97.67 1637.156,99.578 L1637.876,98.21 C1635.212,96.374 1632.26,95.906 1628.912,95.906 C1622.18,95.906 1616.024,101.558 1616.024,108.902 C1616.024,115.994 1621.64,121.898 1629.488,121.898 C1632.044,121.898 1635.608,121.394 1638.56,118.73 L1638.56,109.658 L1629.416,109.658 L1629.416,111.17 L1636.94,111.17 L1636.94,118.082 C1634.6,119.882 1631.828,120.35 1629.524,120.35 C1622.396,120.35 1617.788,115.022 1617.788,108.902 C1617.788,102.422 1623.08,97.454 1628.912,97.454 z" fill="#EC5959" opacity="0.94"/>
    <path d="M1681.528,331.93 L1679.836,331.93 L1679.836,345.682 C1679.836,352.27 1676.812,355.978 1671.448,355.978 C1666.156,355.978 1663.852,352.378 1663.852,348.526 C1663.852,348.022 1664.032,346.798 1664.428,345.97 L1662.7,345.97 C1662.304,346.798 1662.16,348.094 1662.16,348.598 C1662.16,353.242 1664.896,357.526 1671.448,357.526 C1677.82,357.526 1681.528,353.35 1681.528,345.682 z" fill="#EC5959" opacity="0.94"/>
    <path d="M1690.564,357.13 L1690.564,346.87 L1698.412,346.87 C1702.912,346.87 1705.576,343.522 1705.576,339.49 C1705.576,335.458 1702.948,331.93 1698.412,331.93 L1688.872,331.93 L1688.872,357.13 z M1690.564,345.43 L1690.564,333.406 L1698.196,333.406 C1701.724,333.406 1703.812,336.142 1703.812,339.49 C1703.812,342.802 1701.688,345.43 1698.196,345.43 z" fill="#EC5959" opacity="0.94"/>
    <path d="M1721.812,333.082 C1724.62,333.082 1727.212,333.298 1730.056,335.206 L1730.776,333.838 C1728.112,332.002 1725.16,331.534 1721.812,331.534 C1715.08,331.534 1708.924,337.186 1708.924,344.53 C1708.924,351.622 1714.54,357.526 1722.388,357.526 C1724.944,357.526 1728.508,357.022 1731.46,354.358 L1731.46,345.286 L1722.316,345.286 L1722.316,346.798 L1729.84,346.798 L1729.84,353.71 C1727.5,355.51 1724.728,355.978 1722.424,355.978 C1715.296,355.978 1710.688,350.65 1710.688,344.53 C1710.688,338.05 1715.98,333.082 1721.812,333.082 z" fill="#EC5959" opacity="0.94"/>
    <path d="M1149.229,661.47 L1026.128,661.47 L965.566,768.063 L887.95,768.07 M1149.229,665.011 L1210.78,558.403 L1333.88,558.403 L1394.443,451.81 L1517.544,451.81 M1212.661,769.82 L1335.762,769.82 L1397.312,663.211 L1335.762,556.603 L1212.661,556.603 L1151.111,663.211 z M1580.124,342.92 L1518.573,236.312 L1580.124,129.703 M1396.496,450.068 L1519.596,450.068 L1581.147,343.46 L1519.596,236.851 L1396.496,236.851 L1334.945,343.46 z M1717.372,365.46 L1763.227,450.995 L1701.677,557.603 M1701.753,558.603 L1578.653,558.603 L1517.102,451.995 M1656.092,344.395 L1582.563,344.386" fill-opacity="0" stroke="#EC5959" stroke-width="7" opacity="0.448"/>
    <path d="M781.129,661.462 L829.156,746.002" fill-opacity="0" stroke="#EC5959" stroke-width="7" opacity="0.448"/>
    <path d="M41.461,874.892 L103.011,768.283 L226.068,768.07 L287.663,874.892 L226.112,981.5 L103.011,981.5 z M103.011,768.07 L226.112,768.07 L287.663,661.462 L226.112,554.854 L103.011,554.854 L41.461,661.462 z M411.042,874.892 L288.158,874.892 M472.593,981.5 L595.694,981.5 L657.244,874.892 L595.694,768.283 L472.593,768.283 L411.042,874.892 z" fill-opacity="0" stroke="#EC5959" stroke-width="7" opacity="0.448"/>
    <path d="M964.578,130.243 L1026.128,23.634 L1149.229,23.634 L1210.78,130.243 L1149.229,236.851 L1026.128,236.851 z M1395.431,23.635 L1333.88,130.243 L1210.78,130.243 L1149.229,236.851 L1210.78,343.46" fill-opacity="0" stroke="#EC5959" stroke-width="7" opacity="0.448"/>
    <path d="M1704.677,129.703 L1766.227,23.095 L1889.328,23.095 L1950.878,129.703 L1889.328,236.312 L1766.227,236.312 z M1889.328,236.851 L1950.878,343.46 L1889.328,450.068" fill-opacity="0" stroke="#EC5959" stroke-width="7" opacity="0.448"/>
    <path d="M1886.888,665.011 L1763.787,665.011 L1703.225,771.604 L1580.124,771.604 L1518.573,878.213 M1950.878,771.291 L1889.328,877.899 L1766.227,877.899 L1705.664,984.492 L1582.563,984.492 M1334.945,981.5 L1396.496,874.892 L1519.596,874.892 M1582.563,984.492 L1520.488,877.884 M1950.878,773.867 L1885.996,665.289 M1335.654,981.279 L1212.769,981.279 L1152.111,874.671" fill-opacity="0" stroke="#EC5959" stroke-width="7" opacity="0.448"/>
    <path d="M828.329,793.021 L779.129,876.884" fill-opacity="0" stroke="#EC5959" stroke-width="7" opacity="0.448"/>
    <path d="M657.244,450.068 L780.129,450.068 L829.156,365.46 M834.932,544.835 L780.129,450.838" fill-opacity="0" stroke="#EC5959" stroke-width="7" opacity="0.448"/>
    <path d="M287.461,237.715 L410.562,237.715 L472.113,131.106 L410.562,24.498 L287.461,24.498 L225.911,131.106 z M225.607,131.243 L102.506,131.243 L40.956,237.851 L102.506,344.46 L225.607,344.46 L287.158,237.851 L226.607,343.46 M287.942,450.068 L411.042,450.068 L472.593,343.46 L411.042,236.851 M472.593,556.677 L595.694,556.677 L657.244,450.068 L595.694,343.46 L472.593,343.46 L411.042,450.068 z M472.593,450.068 L411.042,450.068 M226.367,345.802 L288.158,451.995" fill-opacity="0" stroke="#EC5959" stroke-width="7" opacity="0.448"/>
    <path d="M829.156,321.46 L780.237,236.851 L842.87,128.38" fill-opacity="0" stroke="#EC5959" stroke-width="7" opacity="0.448"/>
    <path d="M870.304,343.46 L965.78,343.46 L1026.438,450.068" fill-opacity="0" stroke="#EC5959" stroke-width="7" opacity="0.448"/>
  </g>
</svg>
